<svg width="18" height="18" viewBox="0 0 18 18" fill="none" xmlns="http://www.w3.org/2000/svg">
<path fill-rule="evenodd" clip-rule="evenodd" d="M8.16406 0.0410156C3.67675 0.0410156 0.0390625 3.6787 0.0390625 8.16602C0.0390625 12.6533 3.67675 16.291 8.16406 16.291C10.1827 16.291 12.0295 15.5548 13.4504 14.3363L16.8888 17.7746C17.1329 18.0187 17.5286 18.0187 17.7727 17.7746C18.0168 17.5305 18.0168 17.1348 17.7727 16.8907L14.3343 13.4524C15.5529 12.0314 16.2891 10.1847 16.2891 8.16602C16.2891 3.6787 12.6514 0.0410156 8.16406 0.0410156ZM1.28906 8.16602C1.28906 4.36906 4.36711 1.29102 8.16406 1.29102C11.961 1.29102 15.0391 4.36906 15.0391 8.16602C15.0391 11.963 11.961 15.041 8.16406 15.041C4.36711 15.041 1.28906 11.963 1.28906 8.16602Z" fill="#939393"/>
</svg>
