<svg width="866" height="948" viewBox="0 0 866 948" fill="none" xmlns="http://www.w3.org/2000/svg">
<g opacity="0.4">
<path opacity="0.8" d="M353.677 399.762C364.902 391.239 376.868 383.342 389.467 376.175C391.353 375.102 393.279 374.041 395.194 373.019C397.263 371.91 399.323 370.837 401.387 369.769C471.832 334.08 555.681 323.425 638.648 345.965C649.644 348.952 660.377 352.464 670.803 356.457C744.542 384.549 803.61 436.689 841.122 501.02L705.087 577.963L411.365 744.056L269.311 824.42C263.825 815.171 258.626 805.829 253.692 796.301C242.033 771.057 233.581 744.326 228.659 716.712C208.174 597.634 254.444 474.529 353.677 399.762Z" fill="url(#paint0_linear_7001_739)"/>
<path opacity="0.8" d="M378.076 430.661C387.129 423.6 396.775 417.049 406.923 411.095C408.442 410.203 409.994 409.321 411.537 408.472C413.203 407.55 414.862 406.657 416.523 405.769C473.247 376.073 540.593 366.863 607.055 384.919C615.864 387.312 624.458 390.137 632.804 393.359C691.83 416.025 738.955 458.521 768.715 511.146L659.136 575.081L422.535 713.093L308.107 779.869C303.754 772.304 299.631 764.66 295.723 756.862C286.501 736.195 279.86 714.289 276.057 691.638C260.253 593.959 298.041 492.607 378.076 430.661Z" fill="url(#paint1_linear_7001_739)"/>
<path opacity="0.8" d="M407.413 464.739C414.122 459.506 421.271 454.651 428.792 450.237C429.918 449.577 431.068 448.923 432.211 448.293C433.446 447.61 434.675 446.948 435.907 446.29C477.946 424.282 527.858 417.456 577.114 430.838C583.642 432.612 590.012 434.706 596.197 437.093C639.943 453.892 674.868 485.386 696.924 524.388L615.713 571.771L440.362 674.055L355.557 723.544C352.331 717.937 349.275 712.272 346.379 706.493C339.544 691.177 334.623 674.941 331.805 658.154C320.092 585.762 348.097 510.648 407.413 464.739Z" fill="url(#paint2_linear_7001_739)"/>
<path opacity="0.8" d="M437.945 500.176C442.301 496.779 446.941 493.627 451.824 490.763C452.555 490.334 453.301 489.909 454.043 489.501C454.845 489.057 455.643 488.627 456.442 488.2C483.733 473.913 516.133 469.483 548.109 478.169C552.347 479.321 556.481 480.68 560.497 482.23C588.895 493.135 611.567 513.58 625.885 538.898L573.165 569.658L459.335 636.056L404.282 668.183C402.188 664.543 400.205 660.866 398.324 657.114C393.888 647.171 390.693 636.632 388.863 625.734C381.26 578.74 399.44 529.979 437.945 500.176Z" fill="url(#paint3_linear_7001_739)"/>
<path opacity="0.8" d="M504.107 549.507C493.001 558.168 481.169 566.205 468.72 573.509C466.856 574.602 464.953 575.685 463.061 576.727C461.017 577.858 458.982 578.953 456.944 580.042C387.361 616.47 304.748 627.767 223.22 605.619C212.414 602.683 201.872 599.217 191.634 595.265C119.227 567.461 61.4188 515.331 24.9123 450.776L159.332 372.348L449.569 203.05L589.937 121.136C595.277 130.416 600.335 139.793 605.129 149.359C616.441 174.711 624.587 201.583 629.252 229.369C648.639 349.191 602.284 473.519 504.107 549.507Z" fill="url(#paint4_linear_7001_739)"/>
<path opacity="0.8" d="M487.329 521.65C478.257 528.726 468.591 535.29 458.422 541.257C456.899 542.15 455.345 543.035 453.799 543.886C452.129 544.81 450.467 545.704 448.802 546.594C391.961 576.351 324.476 585.58 257.876 567.487C249.05 565.089 240.438 562.258 232.074 559.029C172.926 536.316 125.704 493.733 95.8819 440.999L205.688 376.932L442.778 238.635L557.443 171.721C561.804 179.301 565.936 186.961 569.852 194.775C579.093 215.485 585.747 237.436 589.558 260.134C605.395 358.015 567.529 459.577 487.329 521.65Z" fill="url(#paint5_linear_7001_739)"/>
<path opacity="0.8" d="M457.111 487.566C450.401 492.799 443.253 497.654 435.731 502.067C434.605 502.728 433.456 503.382 432.312 504.011C431.077 504.695 429.848 505.356 428.617 506.014C386.577 528.023 336.666 534.848 287.409 521.467C280.881 519.693 274.512 517.599 268.326 515.211C224.581 498.413 189.655 466.918 167.599 427.917L248.811 380.533L424.161 278.25L508.966 228.761C512.192 234.367 515.248 240.032 518.145 245.811C524.979 261.128 529.901 277.363 532.719 294.151C544.432 366.543 516.426 441.657 457.111 487.566Z" fill="url(#paint6_linear_7001_739)"/>
<path opacity="0.8" d="M426.586 452.128C422.231 455.525 417.59 458.677 412.707 461.542C411.977 461.971 411.23 462.395 410.488 462.804C409.686 463.248 408.888 463.677 408.089 464.104C380.799 478.391 348.398 482.822 316.423 474.135C312.185 472.984 308.05 471.625 304.035 470.075C275.636 459.17 252.964 438.725 238.646 413.406L291.366 382.647L405.196 316.248L460.249 284.122C462.343 287.761 464.327 291.439 466.207 295.19C470.644 305.134 473.839 315.673 475.668 326.57C483.272 373.565 465.091 422.326 426.586 452.128Z" fill="url(#paint7_linear_7001_739)"/>
</g>
<defs>
<linearGradient id="paint0_linear_7001_739" x1="898.03" y1="331.537" x2="69.8155" y2="903.009" gradientUnits="userSpaceOnUse">
<stop offset="0.149446" stop-color="#0EFF7F" stop-opacity="0"/>
<stop offset="0.922383" stop-color="#0EFF7F" stop-opacity="0.8"/>
</linearGradient>
<linearGradient id="paint1_linear_7001_739" x1="815.289" y1="371.648" x2="135.6" y2="827.629" gradientUnits="userSpaceOnUse">
<stop offset="0.149446" stop-color="#0EFF7F" stop-opacity="0"/>
<stop offset="0.922383" stop-color="#0EFF7F" stop-opacity="0.8"/>
</linearGradient>
<linearGradient id="paint2_linear_7001_739" x1="731.44" y1="421.003" x2="227.708" y2="758.94" gradientUnits="userSpaceOnUse">
<stop offset="0.149446" stop-color="#0EFF7F" stop-opacity="0"/>
<stop offset="0.922383" stop-color="#0EFF7F" stop-opacity="0.8"/>
</linearGradient>
<linearGradient id="paint3_linear_7001_739" x1="648.292" y1="471.785" x2="321.288" y2="691.161" gradientUnits="userSpaceOnUse">
<stop offset="0.149446" stop-color="#0EFF7F" stop-opacity="0"/>
<stop offset="0.922383" stop-color="#0EFF7F" stop-opacity="0.8"/>
</linearGradient>
<linearGradient id="paint4_linear_7001_739" x1="-32.2189" y1="621.897" x2="801.55" y2="62.5492" gradientUnits="userSpaceOnUse">
<stop offset="0.164328" stop-color="#0EFF7F" stop-opacity="0"/>
<stop offset="0.922383" stop-color="#0EFF7F"/>
</linearGradient>
<linearGradient id="paint5_linear_7001_739" x1="49.2123" y1="580.785" x2="730.306" y2="123.862" gradientUnits="userSpaceOnUse">
<stop offset="0.162359" stop-color="#0EFF7F" stop-opacity="0"/>
<stop offset="0.922383" stop-color="#0EFF7F"/>
</linearGradient>
<linearGradient id="paint6_linear_7001_739" x1="133.083" y1="531.302" x2="636.815" y2="193.364" gradientUnits="userSpaceOnUse">
<stop offset="0.149446" stop-color="#0EFF7F" stop-opacity="0"/>
<stop offset="0.922383" stop-color="#0EFF7F"/>
</linearGradient>
<linearGradient id="paint7_linear_7001_739" x1="216.24" y1="480.52" x2="543.244" y2="261.144" gradientUnits="userSpaceOnUse">
<stop offset="0.149446" stop-color="#0EFF7F" stop-opacity="0"/>
<stop offset="0.922383" stop-color="#0EFF7F"/>
</linearGradient>
</defs>
</svg>
