<svg width="191" height="57" viewBox="0 0 191 57" fill="none" xmlns="http://www.w3.org/2000/svg">
<path d="M162.735 0C147.124 0 134.469 12.6826 134.469 28.3281C134.469 43.9737 147.124 56.6562 162.735 56.6562C178.346 56.6562 191 43.9721 191 28.3281C191 12.6841 178.346 0 162.735 0ZM162.766 55.0166C148.057 55.0166 136.134 43.0675 136.134 28.3281C136.134 13.5887 148.057 1.63775 162.766 1.63775C177.474 1.63775 189.395 13.5868 189.395 28.3281C189.395 43.0694 177.472 55.0166 162.766 55.0166Z" fill="white"/>
<path d="M162.739 54.396C148.396 54.396 136.727 42.7007 136.727 28.3269C136.727 13.9531 148.396 2.25781 162.739 2.25781C177.081 2.25781 188.751 13.9516 188.751 28.3269C188.751 42.7022 177.081 54.396 162.739 54.396ZM162.739 3.16242C148.893 3.16242 137.629 14.4506 137.629 28.3273C137.629 42.204 148.893 53.4922 162.739 53.4922C176.584 53.4922 187.848 42.2024 187.848 28.3273C187.848 14.4521 176.584 3.16242 162.739 3.16242Z" fill="white"/>
<path d="M147.406 17.861C151.22 14.0231 153.669 13.3395 156.718 12.8616C153.595 14.8481 150.678 19.4696 151.588 22.7208C153.236 19.2712 156.116 15.8992 158.771 14.6701C157.269 16.7807 157.221 19.4073 158.667 21.6525C159.002 18.741 161.036 15.9419 162.738 14.0677C164.44 15.9419 166.474 18.741 166.809 21.6525C168.255 19.4073 168.205 16.7807 166.706 14.6701C169.36 15.8988 172.238 19.2708 173.888 22.7208C174.798 19.4696 171.881 14.8481 168.758 12.8616C171.807 13.3395 174.256 14.0231 178.07 17.861C176.812 12.7271 172.38 10.9479 168.839 10.3127C172.736 9.97789 173.51 10.375 176.953 11.8021C173.214 8.121 170.594 7.45668 166.849 7.81575C167.491 7.25484 168.106 6.95113 169.05 6.70277C167.478 6.08343 165.022 6.40751 164.066 7.32558C164.066 7.32558 163.878 5.63785 162.751 4.95776V4.94238C162.745 4.94431 162.742 4.94738 162.738 4.9493C162.733 4.94776 162.73 4.94431 162.726 4.94238V4.95776C161.599 5.63785 161.411 7.32558 161.411 7.32558C160.455 6.40751 157.998 6.08304 156.427 6.70277C157.371 6.95113 157.984 7.25484 158.626 7.81575C154.883 7.45668 152.263 8.12139 148.523 11.8021C151.966 10.375 152.739 9.97789 156.638 10.3127C153.097 10.9479 148.665 12.7271 147.407 17.861" fill="white"/>
<path d="M180.487 40.0391C180.487 40.0391 172.107 40.5946 162.733 44.3637C153.358 40.5946 144.977 40.0391 144.977 40.0391C150.822 40.9744 156.056 43.2765 160.053 45.5271C158.287 46.3452 156.512 47.2805 154.773 48.3555C154.773 48.3555 155.997 50.4334 157.493 50.9528C157.493 50.9528 159.441 49.2339 162.732 47.1337C166.022 49.2339 167.97 50.9528 167.97 50.9528C169.466 50.4334 170.692 48.3555 170.692 48.3555C168.952 47.2802 167.178 46.3448 165.412 45.5271C169.408 43.2769 174.642 40.9744 180.487 40.0391" fill="white"/>
<path d="M169.055 23.8916C169.059 23.8958 169.063 23.8999 169.067 23.9041L169.055 23.8916Z" fill="white"/>
<path d="M156.003 29.5406C156.516 29.0262 157.109 28.6414 157.743 28.3842C159.648 27.5834 161.929 27.9578 163.479 29.5129L161.653 31.344L161.61 31.3871C163.659 33.4216 166.965 33.4181 169.007 31.3717C171.055 29.3199 171.055 25.9925 169.007 23.9407L169.05 23.8907L167.434 25.5508L167.196 25.7888C164.109 22.6978 159.108 22.6997 156.022 25.7922C153.07 28.7502 152.949 33.4616 155.643 36.5729C153.964 34.5088 154.084 31.4648 156.003 29.5406Z" fill="white"/>
<path d="M169.91 24.9246C172.095 28.0171 171.814 32.3229 169.051 35.0925C165.97 38.1781 160.983 38.185 157.894 35.1113L156.261 36.7472L156.023 36.9921L156.004 36.9713C155.911 36.8783 155.827 36.7799 155.742 36.6814C155.835 36.7833 155.922 36.8902 156.02 36.9886L156.01 36.999C159.615 40.6128 165.458 40.6128 169.063 36.999C172.353 33.7027 172.625 28.5465 169.911 24.9238" fill="white"/>
<path d="M75.4685 17.5235C75.4685 18.8848 74.6161 19.558 72.8988 19.558C70.807 19.558 70.0012 18.6449 70.0012 16.3102V15.0073L68.5964 15.4267C68.5672 17.149 68.776 18.3916 69.2385 19.1836C69.882 20.2915 71.0919 20.8455 72.883 20.8455C75.558 20.8455 76.8867 19.7825 76.8867 17.6723V12.6279L75.4681 13.0627V17.5239L75.4685 17.5235Z" fill="white"/>
<path d="M72.6438 14.0809C73.0771 14.0809 73.405 13.7356 73.405 13.3162C73.405 12.8968 73.0774 12.5381 72.6438 12.5381C72.2243 12.5381 71.8672 12.8972 71.8672 13.3162C71.8672 13.7353 72.2243 14.0809 72.6438 14.0809Z" fill="white"/>
<path d="M79.5781 19.7062H80.9967V10.0508L79.5781 10.4994V19.7062Z" fill="white"/>
<path d="M107.59 12.5522C107.098 11.8791 106.336 11.5496 105.321 11.5496C104.291 11.5496 103.528 11.8791 103.036 12.5522C102.632 13.1216 102.423 13.8551 102.423 14.7682V15.248C102.423 16.2506 101.93 16.7443 100.958 16.7443H100.734V16.7147H90.7596V16.7439H89.4901C89.5055 15.9965 89.5193 15.3825 89.5193 14.9181C89.5193 12.5834 88.5636 11.415 86.6667 11.415C85.6522 11.415 84.8737 11.7895 84.3527 12.523C83.9195 13.1374 83.6953 13.9293 83.6953 14.9181C83.6953 15.8154 83.9491 16.5351 84.4565 17.0734C84.9951 17.6566 85.7717 17.9568 86.7724 17.9726H87.9373C87.8181 18.8549 87.13 19.588 86.1892 19.6034C85.4572 19.6326 84.6807 19.4535 83.8441 19.0786L84.4723 20.4557C84.874 20.7114 85.4576 20.846 86.2188 20.846C87.1008 20.846 87.8185 20.5611 88.3864 19.9783C88.9073 19.4535 89.2218 18.7961 89.3559 17.9726H100.735V17.971H101.048C102.035 17.971 102.767 17.7019 103.245 17.1787C103.768 17.7015 104.454 17.971 105.321 17.971C106.336 17.971 107.098 17.6277 107.59 16.9546C107.994 16.4006 108.203 15.6674 108.203 14.7682C108.203 13.8551 107.994 13.1216 107.59 12.5522ZM88.0857 16.7439H86.7724C85.6664 16.7439 85.1139 16.1311 85.1139 14.9181C85.1139 13.4061 85.6368 12.6576 86.6671 12.6576C87.2799 12.6576 87.6974 12.9129 87.9081 13.4065C88.0411 13.7206 88.1015 14.2142 88.1015 14.9185L88.0861 16.7443L88.0857 16.7439ZM105.321 16.7596C104.336 16.7596 103.842 16.1003 103.842 14.7682C103.842 13.4361 104.336 12.7629 105.321 12.7629C106.291 12.7629 106.785 13.4361 106.785 14.7682C106.785 16.1003 106.291 16.7596 105.321 16.7596Z" fill="white"/>
<path d="M22.6022 18.9831H22.5745L19.7946 10.8896H17.6562V20.8453H18.8642V12.2456H18.8938L21.8325 20.8453H23.0543L25.9934 12.2456H26.0226V20.8453H27.4635V10.8896H25.3979L22.6022 18.9831Z" fill="white"/>
<path d="M38.4797 18.7105H38.4501L36.0065 10.8896H34.7694L32.3101 18.7105H32.2808L30.8122 10.8896H29.3125L31.2194 20.8453H32.8348L35.2645 13.1102H35.2938L37.7081 20.8453H39.3097L41.2012 10.8896H39.9637L38.4797 18.7105Z" fill="white"/>
<path d="M45.3619 10.8887L42.0156 20.8444H43.4273L44.3438 17.8864H47.8074L48.7235 20.8444H50.382L47.0204 10.8887H45.3619ZM44.6491 16.9357L46.0746 12.3177H46.1039L47.5156 16.9357H44.6491Z" fill="white"/>
<path d="M57.7605 18.7674H57.7313L53.7445 10.8896H51.9688V20.8453H53.2924V12.7362H53.3216L57.4256 20.8453H59.0841V10.8896H57.7605V18.7674Z" fill="white"/>
<path d="M6.90582 32.3331C6.90582 33.0409 6.54712 33.3999 5.82052 33.3999H2.16556C1.44934 33.3999 1.09026 33.0409 1.09026 32.3331V30.3001L0.0703125 31.3443V32.4419C0.0703125 33.5618 0.852282 34.3126 2.02408 34.3126H5.87434C7.14417 34.3126 7.91423 33.5845 7.91423 32.4419V29.4082L6.9062 29.6808L6.90582 32.3331Z" fill="white"/>
<path d="M3.27274 30.1049C3.57646 30.1049 3.83712 29.8546 3.83712 29.5386C3.83712 29.2349 3.57646 28.9746 3.27274 28.9746C2.96903 28.9746 2.71875 29.2353 2.71875 29.5386C2.71875 29.8546 2.96865 30.1049 3.27274 30.1049Z" fill="white"/>
<path d="M4.72587 30.1049C5.02958 30.1049 5.29062 29.8546 5.29062 29.5386C5.29062 29.2349 5.02958 28.9746 4.72587 28.9746C4.43446 28.9746 4.17188 29.2353 4.17188 29.5386C4.17188 29.8546 4.43446 30.1049 4.72587 30.1049Z" fill="white"/>
<path d="M13.2823 32.3101C13.2823 33.0506 12.9252 33.4196 12.2089 33.4196H11.6991V33.3993H10.6792C10.3201 33.3993 10.1475 33.2247 10.1475 32.8764V27.2988L9.11719 27.6248V32.9091C9.11719 33.746 9.6262 34.3123 10.5496 34.3123H12.2624C12.8802 34.3123 13.3803 34.1278 13.7483 33.7687C14.1177 33.41 14.3023 32.9422 14.3023 32.3882V29.4094L13.2823 29.7132V32.3101Z" fill="white"/>
<path d="M13.5201 35.2803C13.206 35.2803 12.9453 35.5306 12.9453 35.8343C12.9453 36.138 13.206 36.3983 13.5201 36.3983C13.8238 36.3983 14.0741 36.1376 14.0741 35.8343C14.0741 35.5309 13.8238 35.2803 13.5201 35.2803Z" fill="white"/>
<path d="M12.0566 35.2803C11.7528 35.2803 11.4922 35.5306 11.4922 35.8343C11.4922 36.138 11.7528 36.3983 12.0566 36.3983C12.3484 36.3983 12.6086 36.1376 12.6086 35.8343C12.6086 35.5309 12.348 35.2803 12.0566 35.2803Z" fill="white"/>
<path d="M20.8534 28.4414C21.1571 28.4414 21.4178 28.1788 21.4178 27.8751C21.4178 27.5591 21.1571 27.2988 20.8534 27.2988C20.5497 27.2988 20.2891 27.5595 20.2891 27.8751C20.2891 28.1788 20.5497 28.4414 20.8534 28.4414Z" fill="white"/>
<path d="M25.8534 28.4416C26.1571 28.4416 26.4178 28.179 26.4178 27.8753C26.4178 27.5716 26.1571 27.3213 25.8534 27.3213C25.5497 27.3213 25.2891 27.5716 25.2891 27.8753C25.2891 28.179 25.5497 28.4416 25.8534 28.4416Z" fill="white"/>
<path d="M29.4998 32.289C29.4998 33.0294 29.1408 33.3985 28.4368 33.3985H27.7967V33.42H27.4722C26.756 33.42 26.3969 33.061 26.3969 32.3432V29.4075L25.377 29.7132V32.3101C25.377 33.0506 25.0198 33.42 24.2932 33.42H22.2972C22.7424 32.9318 22.9704 32.4089 22.9927 31.8772C23.0034 31.1921 22.8512 30.6258 22.5475 30.191C22.178 29.6697 21.614 29.4075 20.8547 29.4075C20.1058 29.4075 19.543 29.6697 19.1635 30.191C18.8583 30.6258 18.7183 31.1921 18.7391 31.8772C18.7495 32.4089 18.9671 32.9314 19.4123 33.42H18.0894V33.3993H17.0694C16.7123 33.3993 16.5378 33.2247 16.5378 32.8764V27.2988L15.5078 27.6248V32.9091C15.5078 33.746 16.0168 34.3123 16.9403 34.3123H20.2142C20.4422 34.3123 20.649 34.29 20.8547 34.2466C21.0719 34.2896 21.2895 34.3123 21.4948 34.3123H24.359C25.0199 34.3123 25.5308 34.1155 25.8983 33.736C26.2678 34.1159 26.766 34.3123 27.4065 34.3123H28.057V34.3116H28.4903C29.1077 34.3116 29.6082 34.127 29.9762 33.7679C30.3456 33.3985 30.5302 32.9414 30.5302 32.3874V27.3207L29.4998 27.6264V32.2894V32.289ZM21.7124 32.7019C21.5052 33.0609 21.2242 33.3112 20.8547 33.4304C20.4976 33.3112 20.2142 33.0609 19.997 32.7019C19.814 32.3882 19.726 32.0395 19.726 31.6596C19.726 30.9192 20.1504 30.3221 20.8547 30.3221C21.5933 30.3221 21.9935 30.9192 21.9935 31.6596C21.9935 32.0395 21.897 32.3882 21.712 32.7019H21.7124Z" fill="white"/>
<path d="M31.7344 34.3123H32.7647V27.2988L31.7344 27.6252V34.3123Z" fill="white"/>
<path d="M38.3493 28.4416C38.665 28.4416 38.9256 28.179 38.9256 27.8753C38.9256 27.5716 38.665 27.3213 38.3493 27.3213C38.0456 27.3213 37.7969 27.5716 37.7969 27.8753C37.7969 28.179 38.0452 28.4416 38.3493 28.4416Z" fill="white"/>
<path d="M39.1006 29.3545C38.3205 29.3545 37.7442 29.6151 37.3644 30.138C37.0503 30.5609 36.8984 31.1268 36.8984 31.8223C36.8984 32.53 37.0503 33.094 37.3644 33.5188C37.7442 34.0521 38.3205 34.3123 39.1006 34.3123C39.8806 34.3123 40.4673 34.0517 40.8467 33.5188C41.1505 33.094 41.3023 32.53 41.3023 31.8223C41.3023 31.1268 41.1505 30.5609 40.8467 30.138C40.4673 29.6151 39.8821 29.3545 39.1006 29.3545ZM39.1006 33.4431C38.3205 33.4431 37.9288 32.8995 37.9288 31.8226C37.9288 30.7577 38.3205 30.2249 39.1006 30.2249C39.8925 30.2249 40.2947 30.7581 40.2947 31.8226C40.2947 32.8995 39.8925 33.4431 39.1006 33.4431Z" fill="white"/>
<path d="M39.8281 28.4416C40.1214 28.4416 40.3821 28.179 40.3821 27.8753C40.3821 27.5716 40.1214 27.3213 39.8281 27.3213C39.5244 27.3213 39.2656 27.5716 39.2656 27.8753C39.2656 28.179 39.5244 28.4416 39.8281 28.4416Z" fill="white"/>
<path d="M44.7629 34.0187C44.7629 34.9314 44.2313 35.4977 43.3513 35.4977C42.7334 35.4977 42.1914 35.3562 41.7031 35.0837L42.1914 36.1067C42.5055 36.302 42.8853 36.4 43.3513 36.4C44.1002 36.4 44.6972 36.1824 45.1305 35.7357C45.5757 35.2905 45.7933 34.7142 45.7933 33.9857V29.4092L44.7629 29.7129V34.0187Z" fill="white"/>
<path d="M47 34.3123H48.0303V27.2988L47 27.6252V34.3123Z" fill="white"/>
<path d="M51.3938 29.4199C50.9056 29.4199 50.4169 29.6375 49.9302 30.062V31.2357C50.2874 30.604 50.7756 30.2899 51.3938 30.2899C52.1427 30.2899 52.5222 30.649 52.5222 31.3548V33.4205H49.8541L49.2344 34.3124H53.5421V31.2787C53.5421 30.714 53.3468 30.2673 52.9451 29.9309C52.5449 29.5945 52.0339 29.4199 51.3934 29.4199H51.3938Z" fill="white"/>
<path d="M58.8323 32.311C58.8323 33.0392 58.4752 33.3983 57.759 33.3983H57.3464V27.745L56.3146 28.0487V33.3983H55.2185L54.7422 34.3129H57.8228C58.4425 34.3129 58.9288 34.1264 59.2983 33.7693C59.6674 33.4106 59.8519 32.9427 59.8519 32.3868V27.2236L58.832 27.5274L58.8323 32.311Z" fill="white"/>
<path d="M56.4948 35.8452C56.4948 35.5953 56.5824 35.4642 56.7554 35.4642C56.8746 35.4642 56.973 35.5192 57.0488 35.628L57.2868 35.3223C57.1349 35.1705 56.9727 35.0947 56.7881 35.0947C56.3325 35.0947 56.1046 35.3446 56.1046 35.8452V36.0505H55.7905L55.5625 36.4318H57.3521V36.0505H56.4944L56.4948 35.8452Z" fill="white"/>
<path d="M66.0566 37.042C65.7509 37.042 65.4922 37.3027 65.4922 37.596C65.4922 37.9016 65.7509 38.1619 66.0566 38.1619C66.3707 38.1619 66.619 37.9012 66.619 37.596C66.619 37.3027 66.3707 37.042 66.0566 37.042Z" fill="white"/>
<path d="M67.5253 37.042C67.2112 37.042 66.9609 37.3027 66.9609 37.596C66.9609 37.9016 67.2112 38.1619 67.5253 38.1619C67.829 38.1619 68.0897 37.9012 68.0897 37.596C68.0897 37.3027 67.829 37.042 67.5253 37.042Z" fill="white"/>
<path d="M71.6187 28.4416C71.9224 28.4416 72.1834 28.179 72.1834 27.8753C72.1834 27.5716 71.9228 27.3213 71.6187 27.3213C71.3146 27.3213 71.0547 27.5716 71.0547 27.8753C71.0547 28.179 71.3153 28.4416 71.6187 28.4416Z" fill="white"/>
<path d="M78.8337 29.4623C77.5635 29.4954 76.5885 30.0717 75.8823 31.2139V27.4951L74.8524 27.8111V33.3991H73.5183V33.4206H73.2365C72.5203 33.4206 72.1616 33.0616 72.1616 32.3438V29.4081L71.1417 29.7138V32.3107C71.1417 33.0512 70.7841 33.4206 70.0579 33.4206H69.4739V33.4199H69.0287C68.3348 33.4199 68.0518 33.1923 67.7808 32.5072L67.3026 33.4856C67.5202 33.9862 67.9654 34.2587 68.6385 34.3122C68.5935 34.8231 68.3556 35.1614 67.9223 35.3237C67.6943 35.4221 67.3252 35.4651 66.8043 35.4651C65.5998 35.4755 64.9609 34.737 64.9609 33.4856C64.9609 32.7367 65.1765 31.8878 65.5998 30.9421L64.4177 31.6598C64.1259 32.3553 63.9844 33.03 63.9844 33.6824C63.9844 34.4863 64.202 35.1283 64.6349 35.5943C65.1231 36.1275 65.8497 36.4001 66.8043 36.4001C67.6186 36.4001 68.2591 36.2359 68.7354 35.8996C69.2671 35.5301 69.517 34.9969 69.4739 34.3122H70.1236C70.7845 34.3122 71.2954 34.1153 71.663 33.7359C72.0324 34.1157 72.5311 34.3122 73.1712 34.3122H73.8217V34.3114H81.6536C81.6536 34.1492 81.666 33.8989 81.6759 33.5625C81.6867 33.2242 81.6982 32.9739 81.6982 32.8117C81.6982 31.952 81.5345 31.2466 81.2204 30.7133C80.6887 29.8537 79.8863 29.4297 78.8337 29.462V29.4623ZM80.6891 33.3991H75.8396C76.0019 32.7036 76.3383 32.0512 76.8596 31.4526C77.4878 30.7245 78.1713 30.3654 78.8995 30.3985C79.495 30.4312 79.9625 30.6814 80.2869 31.1266C80.5703 31.6375 80.7118 32.2258 80.7118 32.9109C80.7118 33.0731 80.6994 33.2369 80.6894 33.3991H80.6891Z" fill="white"/>
<path d="M89.7387 32.2889C89.7387 33.0294 89.38 33.3984 88.6761 33.3984H88.0356V33.4207H87.1148C87.1252 32.8771 87.1356 32.4319 87.1356 32.0936C87.1356 30.3974 86.4417 29.5501 85.0649 29.5501C84.3264 29.5501 83.762 29.8211 83.3826 30.354C83.0685 30.7992 82.9062 31.3759 82.9062 32.0936C82.9062 32.7457 83.0908 33.2674 83.4583 33.6591C83.8501 34.0835 84.4129 34.3011 85.1391 34.3111H85.9865C85.9 34.9532 85.4013 35.4864 84.7162 35.4968C84.1845 35.5191 83.6206 35.388 83.0127 35.1169L83.4683 36.1161C83.7617 36.3007 84.1846 36.3991 84.7385 36.3991C85.3786 36.3991 85.9 36.1919 86.3125 35.7674C86.6919 35.388 86.9199 34.9097 87.0164 34.3111H88.0356H88.7295C89.3473 34.3111 89.8475 34.1266 90.2154 33.7675C90.5849 33.3981 90.7694 32.941 90.7694 32.387V27.3203L89.7391 27.6259V32.2889H89.7387ZM86.0949 33.4207H85.1387C84.3364 33.4207 83.9358 32.9736 83.9358 32.0936C83.9358 30.996 84.3156 30.4524 85.0646 30.4524C85.5082 30.4524 85.8119 30.637 85.9638 30.996C86.0622 31.2236 86.1053 31.5827 86.1053 32.0936L86.0949 33.4207Z" fill="white"/>
<path d="M91.9766 34.3123H93.0069V27.2988L91.9766 27.6252V34.3123Z" fill="white"/>
<path d="M99.8374 28.4414C100.141 28.4414 100.391 28.1788 100.391 27.8751C100.391 27.5591 100.141 27.2988 99.8374 27.2988C99.5337 27.2988 99.2734 27.5595 99.2734 27.8751C99.2734 28.1788 99.5341 28.4414 99.8374 28.4414Z" fill="white"/>
<path d="M106.912 30.4411C106.403 29.984 105.773 29.7564 105.026 29.7564C104.862 29.7564 104.71 29.7668 104.548 29.7891L106.891 27.3213H105.545L102.171 30.8436L102.877 31.5064C103.366 30.942 103.994 30.6591 104.776 30.6591C105.373 30.6591 105.861 30.8332 106.229 31.18C106.5 31.4303 106.674 31.7894 106.75 32.2361C106.783 32.4641 106.805 32.8662 106.793 33.4202H101.955V33.3994H100.426V29.4077L99.3958 29.7133V34.0188C99.3958 34.9318 98.8641 35.4962 97.9841 35.4962C97.3663 35.4962 96.8242 35.3563 96.3359 35.0837L96.8242 36.1052C97.1383 36.302 97.5181 36.3985 97.9841 36.3985C99.3838 36.3985 100.274 35.5735 100.416 34.3121H107.846C107.846 33.0834 107.835 32.3879 107.813 32.2361C107.727 31.4856 107.423 30.8867 106.912 30.4411Z" fill="white"/>
<path d="M122.524 32.2895C122.524 33.03 122.166 33.399 121.461 33.399H120.821V33.419C120.06 33.4144 119.617 33.0577 119.499 32.3556C119.401 31.7136 119.206 31.2357 118.892 30.942C118.543 30.616 118.023 30.4522 117.318 30.4522C116.037 30.4522 115.31 31.0835 115.126 32.3556C115.04 33.0511 114.605 33.3998 113.835 33.3998H112.34V29.4081L111.31 29.7137V34.0192C111.31 34.9322 110.777 35.4966 109.898 35.4966C109.28 35.4966 108.737 35.3567 108.25 35.0841L108.737 36.1071C109.053 36.302 109.432 36.3989 109.898 36.3989C111.298 36.3989 112.188 35.5739 112.328 34.3125H113.901C114.486 34.3125 114.931 34.1279 115.245 33.7693C115.538 34.5958 116.33 35.0737 117.318 35.0737C118.36 35.0737 119.162 34.5405 119.423 33.6278C119.752 34.0614 120.227 34.2729 120.821 34.2952V34.3121H120.905C120.905 34.3121 120.907 34.3129 120.909 34.3129H121.05V34.3121H121.515C122.132 34.3121 122.633 34.1276 123.001 33.7685C123.37 33.399 123.555 32.9419 123.555 32.3879V27.3213L122.524 27.6269V32.2899V32.2895ZM117.318 34.2037C116.548 34.2037 116.168 33.7258 116.168 32.7578C116.168 31.7897 116.548 31.3115 117.318 31.3115C118.077 31.3115 118.456 31.7897 118.456 32.7578C118.456 33.7258 118.077 34.2037 117.318 34.2037Z" fill="white"/>
<path d="M124.75 27.6252V34.3123H125.78V27.2988L124.75 27.6252Z" fill="white"/>
<path d="M125.855 24.309H65.4159C29.2877 24.309 0 24.4901 0 24.7126C0 24.9352 29.2877 25.1163 65.4159 25.1163H125.855V24.3086V24.309Z" fill="white"/>
<path d="M0.015625 44.7667V38.8389H0.84911L2.74406 41.8383C3.18233 42.5323 3.52564 43.1566 3.80552 43.7644L3.82282 43.756C3.75362 42.964 3.73633 42.2424 3.73633 41.3193V38.8396H4.45601V44.7675H3.68288L1.80523 41.7595C1.39272 41.1002 0.997507 40.4239 0.700712 39.78L0.673035 39.7904C0.716093 40.5377 0.735311 41.2505 0.735311 42.2339V44.7675H0.015625V44.7667Z" fill="white"/>
<path d="M7.47444 44.7664L7.41408 44.2297H7.3864C7.14996 44.5626 6.69439 44.8629 6.0885 44.8629C5.22925 44.8629 4.78906 44.2554 4.78906 43.6392C4.78906 42.6108 5.70213 42.0479 7.34334 42.0568V41.9687C7.34334 41.6166 7.24646 40.9834 6.37876 40.9834C5.98354 40.9834 5.57103 41.1076 5.2727 41.3009L5.09662 40.7919C5.44878 40.5624 5.95779 40.4121 6.49256 40.4121C7.79046 40.4121 8.10608 41.301 8.10608 42.1533V43.7445C8.10608 44.114 8.12531 44.4746 8.17683 44.766H7.47444V44.7664ZM7.36064 42.5939C6.51831 42.5766 5.56219 42.7249 5.56219 43.5515C5.56219 44.0536 5.89512 44.29 6.29034 44.29C6.8424 44.29 7.19302 43.9379 7.3172 43.5792C7.34296 43.5 7.36026 43.412 7.36026 43.3324L7.36064 42.5939Z" fill="white"/>
<path d="M9.71831 39.2875V40.5093H10.8228V41.0994H9.71831V43.3946C9.71831 43.9209 9.8667 44.2211 10.2965 44.2211C10.5003 44.2211 10.6487 44.1934 10.7452 44.1677L10.7798 44.7474C10.6314 44.8097 10.393 44.8543 10.0962 44.8543C9.73561 44.8543 9.44573 44.7386 9.26081 44.5283C9.04168 44.2988 8.96402 43.9209 8.96402 43.4203V41.099H8.30469V40.5089H8.96402V39.4889L9.71831 39.2875Z" fill="white"/>
<path d="M12.1671 39.3149C12.1774 39.579 11.9841 39.7878 11.6769 39.7878C11.4043 39.7878 11.2109 39.579 11.2109 39.3149C11.2109 39.0423 11.4128 38.8301 11.6942 38.8301C11.9841 38.8301 12.1671 39.0423 12.1671 39.3149ZM11.3074 40.5105H12.079V44.7664H11.3074V40.5105Z" fill="white"/>
<path d="M16.6427 42.6029C16.6427 44.1768 15.5555 44.8635 14.5286 44.8635C13.3791 44.8635 12.4922 44.0177 12.4922 42.6736C12.4922 41.2481 13.4241 40.4131 14.5993 40.4131C15.8177 40.4131 16.6427 41.3019 16.6427 42.6029ZM13.2742 42.646C13.2742 43.5779 13.8093 44.2818 14.5632 44.2818C15.3002 44.2818 15.8542 43.5863 15.8542 42.6287C15.8542 41.9074 15.4936 40.9928 14.5824 40.9928C13.6713 40.9928 13.2742 41.8367 13.2742 42.646Z" fill="white"/>
<path d="M16.8549 41.6616C16.8549 41.2233 16.8465 40.8608 16.8203 40.5105H17.5039L17.5488 41.2129H17.5661C17.7768 40.8092 18.267 40.4121 18.969 40.4121C19.5576 40.4121 20.4703 40.7643 20.4703 42.224V44.766H19.6971V42.3121C19.6971 41.627 19.4434 41.0541 18.7153 41.0541C18.2063 41.0541 17.811 41.4147 17.6799 41.8461C17.6453 41.9426 17.6265 42.0756 17.6265 42.2067V44.766H16.8553V41.6616H16.8549Z" fill="white"/>
<path d="M23.3651 44.7664L23.3047 44.2297H23.277C23.0406 44.5626 22.585 44.8629 21.9791 44.8629C21.1199 44.8629 20.6797 44.2554 20.6797 43.6392C20.6797 42.6108 21.5928 42.0479 23.234 42.0568V41.9687C23.234 41.6166 23.1371 40.9834 22.2694 40.9834C21.8742 40.9834 21.4617 41.1076 21.1633 41.3009L20.9872 40.7919C21.3394 40.5624 21.8484 40.4121 22.3832 40.4121C23.6811 40.4121 23.9967 41.301 23.9967 42.1533V43.7445C23.9967 44.114 24.0159 44.4746 24.0675 44.766H23.3651V44.7664ZM23.2513 42.5939C22.4089 42.5766 21.4528 42.7249 21.4528 43.5515C21.4528 44.0536 21.7858 44.29 22.181 44.29C22.733 44.29 23.0836 43.9379 23.2078 43.5792C23.2336 43.5 23.2509 43.412 23.2509 43.3324V42.5939H23.2513Z" fill="white"/>
<path d="M25.4513 38.5225H24.6797V44.7663H25.4513V38.5225Z" fill="white"/>
<path d="M31.9838 44.5725C31.7024 44.7125 31.1415 44.8539 30.4218 44.8539C28.7548 44.8539 27.5 43.7994 27.5 41.8545C27.5 39.9991 28.7545 38.7412 30.5875 38.7412C31.326 38.7412 31.7904 38.9 31.9923 39.0053L31.8077 39.6301C31.5194 39.4901 31.1054 39.3852 30.6152 39.3852C29.2296 39.3852 28.3081 40.2721 28.3081 41.8287C28.3081 43.28 29.1416 44.2119 30.579 44.2119C31.045 44.2119 31.5194 44.1154 31.827 43.9651L31.9838 44.5725Z" fill="white"/>
<path d="M32.7991 42.778C32.8164 43.8237 33.4842 44.2551 34.2558 44.2551C34.8098 44.2551 35.1427 44.1586 35.431 44.0359L35.5641 44.5899C35.2915 44.7125 34.8271 44.854 34.1504 44.854C32.8422 44.854 32.0625 43.9929 32.0625 42.7073C32.0625 41.4217 32.8168 40.4121 34.0539 40.4121C35.4414 40.4121 35.809 41.6358 35.809 42.4174C35.809 42.5762 35.7917 42.6988 35.7832 42.778H32.7991ZM35.0635 42.224C35.072 41.7323 34.8617 40.9661 33.9936 40.9661C33.212 40.9661 32.8702 41.6873 32.8079 42.224H35.0635Z" fill="white"/>
<path d="M36.0971 41.6616C36.0971 41.2233 36.0886 40.8608 36.0625 40.5105H36.746L36.791 41.2129H36.8083C37.019 40.8092 37.5092 40.4121 38.2112 40.4121C38.7998 40.4121 39.7125 40.7643 39.7125 42.224V44.766H38.9393V42.3121C38.9393 41.627 38.6856 41.0541 37.9574 41.0541C37.4484 41.0541 37.0532 41.4147 36.9221 41.8461C36.8875 41.9426 36.8687 42.0756 36.8687 42.2067V44.766H36.0975V41.6616H36.0971Z" fill="white"/>
<path d="M41.1792 39.2875V40.5093H42.2853V41.0994H41.1792V43.3946C41.1792 43.9209 41.3276 44.2211 41.7575 44.2211C41.9612 44.2211 42.1096 44.1934 42.2061 44.1677L42.2407 44.7474C42.0923 44.8097 41.854 44.8543 41.5572 44.8543C41.1965 44.8543 40.9067 44.7386 40.7217 44.5283C40.5026 44.2988 40.425 43.9209 40.425 43.4203V41.099H39.7656V40.5089H40.425V39.4889L41.1792 39.2875Z" fill="white"/>
<path d="M42.971 42.778C42.9883 43.8237 43.6561 44.2551 44.4277 44.2551C44.9816 44.2551 45.3146 44.1586 45.6029 44.0359L45.7359 44.5899C45.4634 44.7125 44.9989 44.854 44.3223 44.854C43.016 44.854 42.2344 43.9929 42.2344 42.7073C42.2344 41.4217 42.9887 40.4121 44.2258 40.4121C45.6133 40.4121 45.9808 41.6358 45.9808 42.4174C45.9808 42.5762 45.9635 42.6988 45.9551 42.778H42.9714H42.971ZM45.2354 42.224C45.2438 41.7323 45.0335 40.9661 44.1655 40.9661C43.3839 40.9661 43.0421 41.6873 42.9798 42.224H45.2354Z" fill="white"/>
<path d="M46.269 41.8377C46.269 41.3356 46.2605 40.9058 46.2344 40.5106H46.9091L46.9368 41.346H46.9714C47.1628 40.7747 47.6288 40.4141 48.1466 40.4141C48.2347 40.4141 48.295 40.4225 48.3658 40.4398V41.1699C48.2862 41.1526 48.2085 41.1422 48.1036 41.1422C47.558 41.1422 47.1732 41.5563 47.0682 42.1364C47.0509 42.2433 47.0321 42.3659 47.0321 42.497V44.7664H46.2694V41.8377H46.269Z" fill="white"/>
<path d="M50.7455 44.7655V41.0983H50.1484V40.5097H50.7455V40.3059C50.7455 39.7089 50.8766 39.1633 51.2372 38.82C51.5271 38.5386 51.9119 38.4248 52.2725 38.4248C52.5451 38.4248 52.7815 38.4852 52.9299 38.5474L52.8246 39.1464C52.7108 39.093 52.5536 39.0499 52.3344 39.0499C51.6751 39.0499 51.5094 39.6297 51.5094 40.2805V40.51H52.5343V41.0986H51.5094V44.7659H50.7447L50.7455 44.7655Z" fill="white"/>
<path d="M56.6114 42.6029C56.6114 44.1768 55.5242 44.8635 54.4974 44.8635C53.3479 44.8635 52.4609 44.0177 52.4609 42.6736C52.4609 41.2481 53.3928 40.4131 54.5681 40.4131C55.7864 40.4131 56.6114 41.3019 56.6114 42.6029ZM53.2425 42.646C53.2425 43.5779 53.7777 44.2818 54.5316 44.2818C55.2686 44.2818 55.8226 43.5863 55.8226 42.6287C55.8226 41.9074 55.4619 40.9928 54.5508 40.9928C53.6397 40.9928 53.2425 41.8367 53.2425 42.646Z" fill="white"/>
<path d="M57.0502 41.8377C57.0502 41.3356 57.0418 40.9058 57.0156 40.5106H57.6903L57.718 41.346H57.7526C57.9441 40.7747 58.41 40.4141 58.9279 40.4141C59.0159 40.4141 59.0763 40.4225 59.147 40.4398V41.1699C59.0674 41.1526 58.9898 41.1422 58.8848 41.1422C58.3393 41.1422 57.9545 41.5563 57.8495 42.1364C57.8322 42.2433 57.8149 42.3659 57.8149 42.497V44.7664H57.0502V41.8377Z" fill="white"/>
<path d="M62.445 44.7667L60.9453 38.8389H61.7511L62.4535 41.8383C62.6296 42.5769 62.7868 43.3154 62.8918 43.8867H62.9091C63.0056 43.2981 63.1905 42.5942 63.3923 41.8295L64.1828 38.8389H64.9816L65.6994 41.8468C65.8666 42.5492 66.0239 43.2531 66.1119 43.8778H66.1308C66.2534 43.2274 66.4191 42.568 66.6036 41.8295L67.3852 38.8389H68.1653L66.4898 44.7667H65.6909L64.9455 41.6792C64.7625 40.9233 64.6383 40.3436 64.5587 39.7446H64.5414C64.4361 40.3348 64.305 40.9145 64.0859 41.6792L63.2435 44.7667H62.4447H62.445Z" fill="white"/>
<path d="M70.7162 44.7664L70.6559 44.2297H70.6301C70.3922 44.5626 69.9362 44.8629 69.3307 44.8629C68.4714 44.8629 68.0312 44.2554 68.0312 43.6392C68.0312 42.6108 68.9443 42.0479 70.5855 42.0568V41.9687C70.5855 41.6166 70.4887 40.9834 69.621 40.9834C69.2257 40.9834 68.8132 41.1076 68.5149 41.3009L68.3388 40.7919C68.691 40.5624 69.2 40.4121 69.7347 40.4121C71.0326 40.4121 71.3483 41.301 71.3483 42.1533V43.7445C71.3483 44.114 71.3675 44.4746 71.419 44.766H70.7166L70.7162 44.7664ZM70.6024 42.5939C69.7601 42.5766 68.804 42.7249 68.804 43.5515C68.804 44.0536 69.1369 44.29 69.5321 44.29C70.0842 44.29 70.4348 43.9379 70.559 43.5792C70.5848 43.5 70.6021 43.412 70.6021 43.3324V42.5939H70.6024Z" fill="white"/>
<path d="M71.927 43.974C72.1546 44.1224 72.5586 44.2812 72.945 44.2812C73.5059 44.2812 73.77 43.9998 73.77 43.6496C73.77 43.2786 73.549 43.0767 72.9796 42.866C72.2169 42.5935 71.8562 42.1721 71.8562 41.6616C71.8562 40.9746 72.4083 40.4121 73.3214 40.4121C73.7512 40.4121 74.1291 40.5348 74.3655 40.6762L74.1741 41.2387C74.0069 41.1333 73.6997 40.9919 73.3045 40.9919C72.8489 40.9919 72.5936 41.256 72.5936 41.5735C72.5936 41.9257 72.8489 42.0845 73.4013 42.2932C74.1383 42.5762 74.5162 42.9456 74.5162 43.5788C74.5162 44.3262 73.9361 44.854 72.9269 44.854C72.4629 44.854 72.0331 44.7383 71.7344 44.5622L71.9277 43.9736L71.927 43.974Z" fill="white"/>
<path d="M75.9527 39.2875V40.5093H77.0587V41.0994H75.9527V43.3946C75.9527 43.9209 76.1011 44.2211 76.5309 44.2211C76.7347 44.2211 76.883 44.1934 76.9795 44.1677L77.0141 44.7474C76.8657 44.8097 76.6274 44.8543 76.3306 44.8543C75.97 44.8543 75.6801 44.7386 75.4952 44.5283C75.2761 44.2988 75.1984 43.9209 75.1984 43.4203V41.099H74.5391V40.5089H75.1984V39.4889L75.9527 39.2875Z" fill="white"/>
<path d="M77.971 42.778C77.9883 43.8237 78.6561 44.2551 79.4277 44.2551C79.9817 44.2551 80.3146 44.1586 80.6029 44.0359L80.7359 44.5899C80.4634 44.7125 79.9989 44.854 79.3223 44.854C78.016 44.854 77.2344 43.9929 77.2344 42.7073C77.2344 41.4217 77.9887 40.4121 79.2258 40.4121C80.6133 40.4121 80.9808 41.6358 80.9808 42.4174C80.9808 42.5762 80.9635 42.6988 80.9551 42.778H77.9714H77.971ZM80.235 42.224C80.2435 41.7323 80.0332 40.9661 79.1651 40.9661C78.3835 40.9661 78.0417 41.6873 77.9794 42.224H80.235Z" fill="white"/>
<path d="M87.9315 42.1632C87.8884 41.3366 87.8346 40.3424 87.8434 39.6039H87.8177C87.6158 40.2978 87.3709 41.0379 87.0722 41.8541L86.0281 44.7309H85.4483L84.4922 41.9075C84.2108 41.0721 83.9743 40.3079 83.8071 39.6035H83.7898C83.7725 40.3421 83.7275 41.3363 83.676 42.2232L83.5172 44.7652H82.7891L83.2031 38.8389H84.1765L85.1861 41.7053C85.431 42.4354 85.6328 43.0859 85.7816 43.7021H85.8074C85.9573 43.1032 86.168 42.4527 86.4321 41.7053L87.4847 38.8389H88.4581L88.8257 44.7652H88.0818L87.9318 42.1628L87.9315 42.1632Z" fill="white"/>
<path d="M92.0209 44.7664L91.9606 44.2297H91.9348C91.6968 44.5626 91.2409 44.8629 90.6354 44.8629C89.7761 44.8629 89.3359 44.2554 89.3359 43.6392C89.3359 42.6108 90.249 42.0479 91.8902 42.0568V41.9687C91.8902 41.6166 91.7933 40.9834 90.9256 40.9834C90.5304 40.9834 90.1179 41.1076 89.8196 41.3009L89.6435 40.7919C89.9956 40.5624 90.5047 40.4121 91.0394 40.4121C92.3373 40.4121 92.653 41.301 92.653 42.1533V43.7445C92.653 44.114 92.6722 44.4746 92.7237 44.766H92.0213L92.0209 44.7664ZM91.9071 42.5939C91.0648 42.5766 90.1087 42.7249 90.1087 43.5515C90.1087 44.0536 90.4416 44.29 90.8368 44.29C91.3889 44.29 91.7395 43.9379 91.8637 43.5792C91.8894 43.5 91.9067 43.412 91.9067 43.3324V42.5939H91.9071Z" fill="white"/>
<path d="M93.3393 41.6616C93.3393 41.2233 93.3308 40.8608 93.3047 40.5105H93.9882L94.0332 41.2129H94.0505C94.2612 40.8092 94.7514 40.4121 95.4534 40.4121C96.042 40.4121 96.9547 40.7643 96.9547 42.224V44.766H96.1815V42.3121C96.1815 41.627 95.9278 41.0541 95.1996 41.0541C94.6906 41.0541 94.2954 41.4147 94.1643 41.8461C94.1297 41.9426 94.1109 42.0756 94.1109 42.2067V44.766H93.3397L93.3393 41.6616Z" fill="white"/>
<path d="M100.076 44.7664L100.015 44.2297H99.9895C99.7515 44.5626 99.2956 44.8629 98.6901 44.8629C97.8308 44.8629 97.3906 44.2554 97.3906 43.6392C97.3906 42.6108 98.3037 42.0479 99.9449 42.0568V41.9687C99.9449 41.6166 99.848 40.9834 98.9803 40.9834C98.5851 40.9834 98.1726 41.1076 97.8743 41.3009L97.6982 40.7919C98.0503 40.5624 98.5593 40.4121 99.0941 40.4121C100.392 40.4121 100.708 41.301 100.708 42.1533V43.7445C100.708 44.114 100.727 44.4746 100.778 44.766H100.076L100.076 44.7664ZM99.9618 42.5939C99.1195 42.5766 98.1634 42.7249 98.1634 43.5515C98.1634 44.0536 98.4963 44.29 98.8915 44.29C99.4436 44.29 99.7942 43.9379 99.9184 43.5792C99.9441 43.5 99.9614 43.412 99.9614 43.3324L99.9618 42.5939Z" fill="white"/>
<path d="M105.045 40.51C105.028 40.8171 105.009 41.1605 105.009 41.6799V44.1495C105.009 45.1264 104.818 45.725 104.403 46.0945C103.993 46.4812 103.396 46.6035 102.86 46.6035C102.351 46.6035 101.789 46.4808 101.447 46.2513L101.641 45.6627C101.922 45.8369 102.36 45.9957 102.887 45.9957C103.675 45.9957 104.255 45.5832 104.255 44.5098V44.0354H104.238C104.001 44.4306 103.544 44.7481 102.887 44.7481C101.834 44.7481 101.078 43.8508 101.078 42.6721C101.078 41.2312 102.019 40.4131 102.992 40.4131C103.729 40.4131 104.133 40.7998 104.317 41.1516H104.334L104.369 40.5096H105.045V40.51ZM104.246 42.1892C104.246 42.0581 104.238 41.9424 104.203 41.8371C104.062 41.3884 103.685 41.019 103.123 41.019C102.386 41.019 101.86 41.6437 101.86 42.6291C101.86 43.4645 102.281 44.1599 103.115 44.1599C103.589 44.1599 104.019 43.8597 104.184 43.368C104.229 43.2349 104.247 43.0865 104.247 42.9554V42.1892H104.246Z" fill="white"/>
<path d="M106.033 42.778C106.051 43.8237 106.719 44.2551 107.49 44.2551C108.044 44.2551 108.377 44.1586 108.665 44.0359L108.798 44.5899C108.526 44.7125 108.061 44.854 107.385 44.854C106.078 44.854 105.297 43.9929 105.297 42.7073C105.297 41.4217 106.051 40.4121 107.288 40.4121C108.676 40.4121 109.043 41.6358 109.043 42.4174C109.043 42.5762 109.026 42.6988 109.018 42.778H106.034H106.033ZM108.298 42.224C108.306 41.7323 108.096 40.9661 107.228 40.9661C106.446 40.9661 106.105 41.6873 106.042 42.224H108.298Z" fill="white"/>
<path d="M109.331 41.6616C109.331 41.2233 109.323 40.8608 109.297 40.5105H109.972L110.008 41.1956H110.033C110.27 40.7919 110.665 40.4121 111.368 40.4121C111.946 40.4121 112.384 40.7643 112.569 41.2663H112.586C112.718 41.0284 112.884 40.8435 113.06 40.7124C113.314 40.519 113.595 40.4121 113.999 40.4121C114.56 40.4121 115.393 40.7831 115.393 42.2605V44.7664H114.64V42.3574C114.64 41.5393 114.341 41.0476 113.718 41.0476C113.28 41.0476 112.938 41.3721 112.807 41.75C112.771 41.8553 112.745 41.9968 112.745 42.1367V44.7668H111.99V42.2159C111.99 41.5393 111.692 41.0476 111.103 41.0476C110.62 41.0476 110.27 41.4324 110.147 41.8207C110.102 41.9345 110.085 42.0675 110.085 42.1986V44.7664H109.331V41.662L109.331 41.6616Z" fill="white"/>
<path d="M116.26 42.778C116.277 43.8237 116.945 44.2551 117.717 44.2551C118.271 44.2551 118.604 44.1586 118.892 44.0359L119.025 44.5899C118.752 44.7125 118.286 44.854 117.611 44.854C116.303 44.854 115.523 43.9929 115.523 42.7073C115.523 41.4217 116.278 40.4121 117.515 40.4121C118.902 40.4121 119.27 41.6358 119.27 42.4174C119.27 42.5762 119.253 42.6988 119.244 42.778H116.26H116.26ZM118.524 42.224C118.533 41.7323 118.322 40.9661 117.454 40.9661C116.673 40.9661 116.331 41.6873 116.268 42.224H118.524Z" fill="white"/>
<path d="M119.55 41.6616C119.55 41.2233 119.542 40.8608 119.516 40.5105H120.199L120.244 41.2129H120.261C120.472 40.8092 120.962 40.4121 121.664 40.4121C122.253 40.4121 123.166 40.7643 123.166 42.224V44.766H122.392V42.3121C122.392 41.627 122.139 41.0541 121.411 41.0541C120.902 41.0541 120.506 41.4147 120.375 41.8461C120.341 41.9426 120.322 42.0756 120.322 42.2067V44.766H119.551L119.55 41.6616Z" fill="white"/>
<path d="M124.64 39.2875V40.5093H125.746V41.0994H124.64V43.3946C124.64 43.9209 124.789 44.2211 125.218 44.2211C125.422 44.2211 125.571 44.1934 125.667 44.1677L125.702 44.7474C125.553 44.8097 125.315 44.8543 125.018 44.8543C124.657 44.8543 124.368 44.7386 124.183 44.5283C123.964 44.2988 123.886 43.9209 123.886 43.4203V41.099H123.227V40.5089H123.886V39.4889L124.64 39.2875Z" fill="white"/>
</svg>
