<svg width="21" height="21" viewBox="0 0 21 21" fill="none" xmlns="http://www.w3.org/2000/svg">
<path d="M19.0458 6.44375C18.9462 6.07378 18.7512 5.73645 18.4803 5.46552C18.2093 5.1946 17.872 4.99959 17.502 4.9C16.1395 4.53125 10.6645 4.53125 10.6645 4.53125C10.6645 4.53125 5.18953 4.53125 3.82703 4.9C3.45706 4.99959 3.11973 5.1946 2.8488 5.46552C2.57788 5.73645 2.38287 6.07378 2.28328 6.44375C2.02887 7.83329 1.90542 9.24364 1.91453 10.6563C1.90542 12.0689 2.02887 13.4792 2.28328 14.8688C2.38287 15.2387 2.57788 15.5761 2.8488 15.847C3.11973 16.1179 3.45706 16.3129 3.82703 16.4125C5.18953 16.7812 10.6645 16.7812 10.6645 16.7812C10.6645 16.7812 16.1395 16.7812 17.502 16.4125C17.872 16.3129 18.2093 16.1179 18.4803 15.847C18.7512 15.5761 18.9462 15.2387 19.0458 14.8688C19.3002 13.4792 19.4236 12.0689 19.4145 10.6563C19.4236 9.24364 19.3002 7.83329 19.0458 6.44375ZM8.91453 13.2813V8.03125L13.4583 10.6563L8.91453 13.2813Z" fill="#FCFCFD"/>
</svg>
