<svg width="21" height="21" viewBox="0 0 21 21" fill="none" xmlns="http://www.w3.org/2000/svg">
<path d="M17.3328 3.15625H3.99531C3.77536 3.15789 3.56487 3.24599 3.40934 3.40152C3.2538 3.55706 3.1657 3.76754 3.16406 3.9875V17.325C3.1657 17.545 3.2538 17.7554 3.40934 17.911C3.56487 18.0665 3.77536 18.1546 3.99531 18.1562H11.1766V12.3562H9.22656V10.0875H11.1766V8.41875C11.1766 6.48125 12.3578 5.425 14.0953 5.425C14.6766 5.425 15.2578 5.425 15.8391 5.5125V7.53125H14.6453C13.7016 7.53125 13.5203 7.98125 13.5203 8.6375V10.0813H15.7703L15.4766 12.35H13.5203V18.1562H17.3328C17.5528 18.1546 17.7633 18.0665 17.9188 17.911C18.0743 17.7554 18.1624 17.545 18.1641 17.325V3.9875C18.1624 3.76754 18.0743 3.55706 17.9188 3.40152C17.7633 3.24599 17.5528 3.15789 17.3328 3.15625Z" fill="#FCFCFD"/>
</svg>
