<svg width="21" height="21" viewBox="0 0 21 21" fill="none" xmlns="http://www.w3.org/2000/svg">
<path d="M17.0453 3.15627H4.28281C3.99201 3.15452 3.71209 3.26671 3.50299 3.4688C3.29389 3.6709 3.17223 3.94683 3.16406 4.23752V17.0313C3.17063 17.3225 3.29179 17.5994 3.50124 17.8018C3.71069 18.0042 3.99154 18.1159 4.28281 18.1125H17.0453C17.3366 18.1159 17.6174 18.0042 17.8269 17.8018C18.0363 17.5994 18.1575 17.3225 18.1641 17.0313V4.23752C18.1559 3.94683 18.0342 3.6709 17.8251 3.4688C17.616 3.26671 17.3361 3.15452 17.0453 3.15627ZM7.60781 15.9125H5.40781V8.78127H7.60781V15.9125ZM6.53281 7.78752C6.19504 7.78762 5.87061 7.65561 5.62887 7.4197C5.38712 7.1838 5.24722 6.8627 5.23906 6.52502C5.23295 6.35348 5.26223 6.18251 5.32508 6.02278C5.38793 5.86305 5.48301 5.71797 5.60439 5.59659C5.72576 5.47522 5.87084 5.38014 6.03057 5.31729C6.1903 5.25443 6.36127 5.22515 6.53281 5.23127C6.85959 5.25402 7.16557 5.39989 7.389 5.63942C7.61244 5.87896 7.73669 6.19433 7.73669 6.5219C7.73669 6.84946 7.61244 7.16484 7.389 7.40437C7.16557 7.6439 6.85959 7.78977 6.53281 7.81252V7.78752ZM15.9641 15.8688H13.7891V12.3813C13.7891 11.55 13.7891 10.4688 12.6266 10.4688C11.4641 10.4688 11.2891 11.3813 11.2891 12.3V15.8313H9.06406V8.78127H11.1391V9.71877H11.1828C11.3955 9.34941 11.7056 9.04562 12.0793 8.8406C12.4529 8.63558 12.8758 8.53722 13.3016 8.55627C15.5453 8.55627 15.9641 10.0563 15.9641 11.9625V15.8688Z" fill="#FCFCFD"/>
</svg>
