<svg width="21" height="21" viewBox="0 0 21 21" fill="none" xmlns="http://www.w3.org/2000/svg">
<path fill-rule="evenodd" clip-rule="evenodd" d="M13.6947 4.55138C12.9039 4.51525 12.6666 4.50762 10.6641 4.50762V4.50756C8.6615 4.50756 8.42425 4.51525 7.63344 4.55131C7.15784 4.55697 6.68676 4.64433 6.24075 4.80956C5.91731 4.93437 5.62357 5.1255 5.37843 5.37065C5.13329 5.6158 4.94217 5.90955 4.81737 6.233C4.65214 6.67901 4.56479 7.15009 4.55912 7.62569C4.523 8.4165 4.51537 8.65375 4.51537 10.6563C4.51537 12.6589 4.52306 12.8961 4.55912 13.6869C4.56479 14.1625 4.65214 14.6336 4.81737 15.0796C4.94218 15.4031 5.1333 15.6968 5.37844 15.9419C5.62358 16.1871 5.91731 16.3782 6.24075 16.503C6.68676 16.6682 7.15784 16.7556 7.63344 16.7612C8.42419 16.7974 8.66131 16.805 10.6641 16.805C12.6668 16.805 12.9039 16.7973 13.6947 16.7612C14.1703 16.7556 14.6414 16.6682 15.0874 16.503C15.4108 16.3782 15.7045 16.1871 15.9497 15.9419C16.1948 15.6968 16.3859 15.4031 16.5107 15.0796C16.676 14.6336 16.7633 14.1625 16.769 13.6869C16.8051 12.8961 16.8127 12.6589 16.8127 10.6563C16.8127 8.65375 16.8051 8.4165 16.769 7.62569C16.7633 7.15009 16.676 6.67901 16.5107 6.233C16.3859 5.90956 16.1948 5.61583 15.9497 5.37069C15.7045 5.12555 15.4108 4.93443 15.0874 4.80963C14.6414 4.64439 14.1703 4.55704 13.6947 4.55138ZM7.57181 3.20137C8.37175 3.16487 8.62719 3.15625 10.6641 3.15625C12.7009 3.15625 12.9564 3.16488 13.756 3.20169C14.3782 3.21415 14.9938 3.33203 15.5766 3.55031C16.0748 3.74297 16.5273 4.0376 16.9051 4.41532C17.2829 4.79304 17.5776 5.24552 17.7703 5.74375C17.9886 6.32643 18.1064 6.94191 18.1189 7.564C18.1554 8.36394 18.1641 8.61937 18.1641 10.6562C18.1641 12.6931 18.1554 12.9486 18.1193 13.7482C18.1068 14.3704 17.9889 14.986 17.7706 15.5688C17.5779 16.067 17.2832 16.5196 16.9055 16.8974C16.5277 17.2751 16.0752 17.5698 15.5769 17.7625C14.9941 17.9808 14.3785 18.0987 13.7563 18.1111C12.9564 18.1476 12.7009 18.1562 10.6641 18.1562C8.62719 18.1562 8.37175 18.1476 7.57213 18.1114C6.94993 18.099 6.33435 17.9811 5.75156 17.7628C5.25327 17.5701 4.80074 17.2754 4.42296 16.8977C4.04519 16.5199 3.75051 16.0674 3.55781 15.5691C3.33953 14.9863 3.22165 14.3707 3.20919 13.7485C3.17269 12.9486 3.16406 12.6931 3.16406 10.6562C3.16406 8.61937 3.17269 8.36394 3.20919 7.56431C3.22164 6.94211 3.33952 6.32653 3.55781 5.74375C3.75051 5.24546 4.04519 4.79292 4.42296 4.41515C4.80074 4.03737 5.25327 3.7427 5.75156 3.55C6.33425 3.33174 6.94972 3.21386 7.57181 3.20137ZM14.6675 7.55269C15.1646 7.55269 15.5675 7.14974 15.5675 6.65269C15.5675 6.15563 15.1646 5.75269 14.6675 5.75269C14.1705 5.75269 13.7675 6.15563 13.7675 6.65269C13.7675 7.14974 14.1705 7.55269 14.6675 7.55269ZM10.664 6.80493C9.90231 6.80493 9.15769 7.03081 8.52433 7.45401C7.89098 7.8772 7.39734 8.4787 7.10584 9.18245C6.81434 9.8862 6.73807 10.6606 6.88667 11.4077C7.03528 12.1548 7.40209 12.841 7.94071 13.3796C8.47934 13.9183 9.16558 14.2851 9.91268 14.4337C10.6598 14.5823 11.4342 14.506 12.1379 14.2145C12.8416 13.923 13.4432 13.4294 13.8663 12.796C14.2895 12.1627 14.5154 11.418 14.5154 10.6563C14.5154 9.63486 14.1097 8.65525 13.3874 7.93297C12.6651 7.2107 11.6855 6.80493 10.664 6.80493ZM10.664 13.1563C10.1696 13.1563 9.68624 13.0097 9.27512 12.735C8.864 12.4603 8.54356 12.0698 8.35435 11.613C8.16513 11.1562 8.11562 10.6535 8.21208 10.1686C8.30854 9.68363 8.54665 9.23817 8.89628 8.88854C9.24591 8.53891 9.69137 8.30081 10.1763 8.20434C10.6613 8.10788 11.1639 8.15739 11.6208 8.34661C12.0776 8.53583 12.468 8.85626 12.7427 9.26738C13.0174 9.6785 13.164 10.1619 13.164 10.6563C13.164 11.3193 12.9007 11.9552 12.4318 12.4241C11.963 12.8929 11.3271 13.1563 10.664 13.1563Z" fill="#FCFCFD"/>
</svg>
