<svg width="122" height="122" viewBox="0 0 122 122" fill="none" xmlns="http://www.w3.org/2000/svg">
<path d="M61.0766 8.01074C50.6053 8.01074 40.3692 11.1158 31.6626 16.9334C22.9561 22.7509 16.1701 31.0196 12.1629 40.6938C8.15575 50.368 7.10729 61.0132 9.15014 71.2833C11.193 81.5534 16.2354 90.987 23.6397 98.3913C31.044 105.796 40.4777 110.838 50.7478 112.881C61.0178 114.924 71.6631 113.875 81.3373 109.868C91.0115 105.861 99.2801 99.075 105.098 90.3684C110.915 81.6619 114.02 71.4258 114.02 60.9545C114.02 46.9129 108.442 33.4465 98.5134 23.5176C88.5846 13.5887 75.1181 8.01074 61.0766 8.01074V8.01074ZM89.24 64.3372L43.8596 87.0274C43.283 87.3157 42.6423 87.4519 41.9983 87.423C41.3542 87.394 40.7283 87.2009 40.1799 86.862C39.6315 86.523 39.1789 86.0495 38.865 85.4864C38.5511 84.9233 38.3863 84.2893 38.3864 83.6446V38.2643C38.3863 37.6196 38.5511 36.9856 38.865 36.4225C39.1789 35.8594 39.6315 35.3859 40.1799 35.047C40.7283 34.708 41.3542 34.5149 41.9983 34.486C42.6423 34.457 43.283 34.5932 43.8596 34.8816L89.24 57.5717C89.8683 57.8858 90.3967 58.3686 90.766 58.9661C91.1354 59.5635 91.331 60.2521 91.331 60.9545C91.331 61.6569 91.1354 62.3454 90.766 62.9429C90.3967 63.5404 89.8683 64.0232 89.24 64.3372Z" fill="white" fill-opacity="0.66"/>
</svg>
