<svg width="122" height="122" viewBox="0 0 122 122" fill="none" xmlns="http://www.w3.org/2000/svg">
<path d="M60.5844 8.01074C50.1131 8.01074 39.877 11.1158 31.1704 16.9334C22.4639 22.7509 15.6779 31.0196 11.6707 40.6938C7.66356 50.368 6.6151 61.0132 8.65795 71.2833C10.7008 81.5534 15.7432 90.987 23.1475 98.3913C30.5518 105.796 39.9855 110.838 50.2556 112.881C60.5256 114.924 71.1709 113.875 80.8451 109.868C90.5193 105.861 98.7879 99.075 104.605 90.3684C110.423 81.6619 113.528 71.4258 113.528 60.9545C113.528 46.9129 107.95 33.4465 98.0212 23.5176C88.0924 13.5887 74.6259 8.01074 60.5844 8.01074V8.01074ZM88.7478 64.3372L43.3675 87.0274C42.7909 87.3157 42.1501 87.4519 41.5061 87.423C40.8621 87.394 40.2361 87.2009 39.6877 86.862C39.1393 86.523 38.6867 86.0495 38.3728 85.4864C38.0589 84.9233 37.8941 84.2893 37.8942 83.6446V38.2643C37.8941 37.6196 38.0589 36.9856 38.3728 36.4225C38.6867 35.8594 39.1393 35.3859 39.6877 35.047C40.2361 34.708 40.8621 34.5149 41.5061 34.486C42.1501 34.457 42.7909 34.5932 43.3675 34.8816L88.7478 57.5717C89.3761 57.8858 89.9045 58.3686 90.2739 58.9661C90.6432 59.5635 90.8388 60.2521 90.8388 60.9545C90.8388 61.6569 90.6432 62.3454 90.2739 62.9429C89.9045 63.5404 89.3761 64.0232 88.7478 64.3372Z" fill="white" fill-opacity="0.66"/>
</svg>
