<svg width="103" height="103" viewBox="0 0 103 103" fill="none" xmlns="http://www.w3.org/2000/svg">
<path d="M51.5245 7.15527C42.7339 7.15527 34.1406 9.76201 26.8314 14.6458C19.5223 19.5297 13.8255 26.4712 10.4614 34.5928C7.09738 42.7143 6.2172 51.651 7.93217 60.2727C9.64714 68.8945 13.8802 76.814 20.0962 83.03C26.3121 89.2459 34.2317 93.479 42.8535 95.194C51.4752 96.909 60.4119 96.0288 68.5334 92.6647C76.6549 89.3007 83.5965 83.6039 88.4803 76.2947C93.3642 68.9856 95.9709 60.3923 95.9709 51.6017C95.9709 39.8137 91.2882 28.5086 82.9529 20.1733C74.6175 11.838 63.3124 7.15527 51.5245 7.15527V7.15527ZM75.1678 54.4415L37.0709 73.4899C36.5868 73.732 36.0489 73.8463 35.5083 73.822C34.9676 73.7977 34.4421 73.6356 33.9817 73.351C33.5213 73.0665 33.1414 72.669 32.8778 72.1963C32.6143 71.7236 32.476 71.1913 32.4761 70.6501V32.5532C32.476 32.012 32.6143 31.4797 32.8778 31.007C33.1414 30.5343 33.5213 30.1368 33.9817 29.8523C34.4421 29.5677 34.9676 29.4056 35.5083 29.3813C36.0489 29.357 36.5868 29.4713 37.0709 29.7134L75.1678 48.7618C75.6952 49.0255 76.1389 49.4308 76.4489 49.9324C76.759 50.434 76.9232 51.012 76.9232 51.6017C76.9232 52.1913 76.759 52.7693 76.4489 53.2709C76.1389 53.7725 75.6952 54.1778 75.1678 54.4415Z" fill="white" fill-opacity="0.66"/>
</svg>
