<svg width="144" height="143" viewBox="0 0 144 143" fill="none" xmlns="http://www.w3.org/2000/svg">
<path d="M71.9532 8.9375C59.5795 8.9375 47.4836 12.6067 37.1953 19.4812C26.9069 26.3556 18.8881 36.1266 14.1529 47.5584C9.41773 58.9902 8.17879 71.5694 10.5928 83.7053C13.0068 95.8413 18.9653 106.989 27.7148 115.738C36.4643 124.488 47.6119 130.446 59.7478 132.86C71.8838 135.274 84.463 134.035 95.8948 129.3C107.327 124.565 117.098 116.546 123.972 106.258C130.846 95.9695 134.516 83.8737 134.516 71.5C134.516 54.9074 127.924 38.9944 116.192 27.2616C104.459 15.5289 88.5458 8.9375 71.9532 8.9375V8.9375ZM105.233 75.4973L51.6083 102.31C50.9269 102.651 50.1698 102.811 49.4087 102.777C48.6477 102.743 47.908 102.515 47.26 102.114C46.612 101.714 46.0771 101.154 45.7062 100.489C45.3352 99.8235 45.1406 99.0743 45.1407 98.3125V44.6875C45.1406 43.9257 45.3352 43.1765 45.7062 42.5111C46.0771 41.8457 46.612 41.2862 47.26 40.8857C47.908 40.4851 48.6477 40.2569 49.4087 40.2227C50.1698 40.1885 50.9269 40.3494 51.6083 40.6902L105.233 67.5027C105.976 67.8738 106.6 68.4443 107.037 69.1503C107.473 69.8564 107.704 70.67 107.704 71.5C107.704 72.33 107.473 73.1436 107.037 73.8497C106.6 74.5557 105.976 75.1262 105.233 75.4973Z" fill="white" fill-opacity="0.66"/>
</svg>
