<svg width="103" height="103" viewBox="0 0 103 103" fill="none" xmlns="http://www.w3.org/2000/svg">
<path d="M51.4855 7.15527C42.6948 7.15527 34.1015 9.76201 26.7924 14.6458C19.4832 19.5297 13.7864 26.4712 10.4224 34.5928C7.05832 42.7143 6.17813 51.651 7.89311 60.2727C9.60808 68.8945 13.8412 76.814 20.0571 83.03C26.2731 89.2459 34.1927 93.479 42.8144 95.194C51.4362 96.909 60.3728 96.0288 68.4944 92.6647C76.6159 89.3007 83.5574 83.6039 88.4413 76.2947C93.3251 68.9856 95.9318 60.3923 95.9318 51.6017C95.9318 39.8137 91.2491 28.5086 82.9138 20.1733C74.5785 11.838 63.2734 7.15527 51.4855 7.15527V7.15527ZM75.1287 54.4415L37.0318 73.4899C36.5478 73.732 36.0099 73.8463 35.4692 73.822C34.9285 73.7977 34.403 73.6356 33.9427 73.351C33.4823 73.0665 33.1023 72.669 32.8388 72.1963C32.5752 71.7236 32.437 71.1913 32.437 70.6501V32.5532C32.437 32.012 32.5752 31.4797 32.8388 31.007C33.1023 30.5343 33.4823 30.1368 33.9427 29.8523C34.403 29.5677 34.9285 29.4056 35.4692 29.3813C36.0099 29.357 36.5478 29.4713 37.0318 29.7134L75.1287 48.7618C75.6562 49.0255 76.0998 49.4308 76.4098 49.9324C76.7199 50.434 76.8841 51.012 76.8841 51.6017C76.8841 52.1913 76.7199 52.7693 76.4098 53.2709C76.0998 53.7725 75.6562 54.1778 75.1287 54.4415Z" fill="white" fill-opacity="0.66"/>
</svg>
