<svg width="1053" height="1012" viewBox="0 0 1053 1012" fill="none" xmlns="http://www.w3.org/2000/svg">
<path opacity="0.7" d="M141.783 153.132L334.058 443.41C402.072 399.063 479.756 381.55 554.837 388.193C555.057 388.196 555.274 388.242 555.535 388.254C560.243 388.528 565.004 388.954 569.707 389.454C581.239 390.73 592.787 392.536 604.38 394.977C711.68 417.572 796.813 487.705 842.288 578.735C875.937 645.997 887.901 724.673 871.199 803.99C869.369 812.68 867.206 821.262 864.777 829.654L864.751 829.777C848.646 889.102 816.844 944.36 770.897 988.767C779.982 981.158 788.863 973.235 797.521 965.088C798.008 964.7 798.4 964.292 798.807 963.844C861.173 902.777 908.91 825.55 934.73 736.981C935.986 732.708 937.154 728.41 938.295 724.07C939.464 719.772 940.516 715.414 941.57 711.049C942.57 706.943 943.482 702.818 944.352 698.684L944.533 697.827C945.393 693.741 946.205 689.681 946.938 685.561C947.657 681.709 948.351 677.802 948.941 673.922C969.013 549.651 944.646 417.802 870.405 303.98C853.337 277.822 834.332 253.701 813.737 231.65C741.653 154.509 649.765 102.938 551.26 79.6135C547.405 78.6669 543.491 77.7997 539.615 76.9835L538.376 76.7226C524.255 73.792 510.105 71.4379 496.042 69.7212C367.961 53.659 243.212 85.8255 141.783 153.132Z" fill="url(#paint0_linear_5758_16487)"/>
<defs>
<linearGradient id="paint0_linear_5758_16487" x1="55.5705" y1="80.1958" x2="776.763" y2="583.049" gradientUnits="userSpaceOnUse">
<stop offset="0.110758" stop-color="#04994F"/>
<stop offset="0.445537" stop-color="#00A653" stop-opacity="0.1"/>
<stop offset="0.737261" stop-color="white" stop-opacity="0"/>
</linearGradient>
</defs>
</svg>
